<svg xmlns="http://www.w3.org/2000/svg" width="24" height="24" fill="none"><path d="M0 3.75A3.75 3.75 0 013.75 0h16.5A3.75 3.75 0 0124 3.75v16.5A3.75 3.75 0 0120.25 24H3.75A3.75 3.75 0 010 20.25V3.75z" fill="url(#A)"/><path d="M5.25 6.75A.75.75 0 016 6h12a.75.75 0 01.75.75v.75a.75.75 0 01-.75.75H6a.75.75 0 01-.75-.75v-.75zm0 4.875a.75.75 0 01.75-.75h12a.75.75 0 01.75.75v.75a.75.75 0 01-.75.75H6a.75.75 0 01-.75-.75v-.75zm0 4.875a.75.75 0 01.75-.75h7.5a.75.75 0 01.75.75v.75a.75.75 0 01-.75.75H6a.75.75 0 01-.75-.75v-.75z" fill="#fff"/><defs><linearGradient id="A" x1="0" y1="0" x2="24" y2="24" gradientUnits="userSpaceOnUse"><stop stop-color="#6eb1ff"/><stop offset="1" stop-color="#7a4bfa"/></linearGradient></defs></svg>