<svg width="44.000000" height="43.000000" viewBox="0 0 44 43" fill="none" xmlns="http://www.w3.org/2000/svg" xmlns:xlink="http://www.w3.org/1999/xlink">
    <path id="path" d="M22.0005 34.063L24.1472 36.2117C24.5784 36.6428 25.0474 37.0278 25.5544 37.3665C26.0613 37.7053 26.5964 37.9915 27.1597 38.2249C27.7231 38.4583 28.3037 38.6343 28.9016 38.7534C29.4998 38.8723 30.1035 38.9319 30.7134 38.9319C31.323 38.9319 31.927 38.8726 32.5249 38.7537C33.123 38.6348 33.7036 38.4585 34.2668 38.2253C34.8303 37.9919 35.3655 37.7061 35.8726 37.3672C36.3794 37.0286 36.8486 36.6436 37.2798 36.2126C37.7109 35.7815 38.0959 35.3125 38.4346 34.8054C38.7734 34.2986 39.0596 33.7634 39.293 33.2C39.5264 32.6367 39.7024 32.0562 39.8215 31.458C39.9404 30.8601 40 30.2563 40 29.6465C40 29.0369 39.9407 28.4329 39.8218 27.835C39.7029 27.2368 39.5266 26.6562 39.2935 26.0928C39.0601 25.5295 38.7742 24.9944 38.4353 24.4873C38.0967 23.9802 37.7117 23.5112 37.2808 23.0801L35.1321 20.9314L37.2788 18.7847C37.71 18.3535 38.0947 17.8845 38.4336 17.3774C38.7722 16.8706 39.0583 16.3354 39.2915 15.7722C39.5249 15.209 39.7009 14.6284 39.8201 14.0303C39.939 13.4324 39.9983 12.8286 39.9983 12.2188C39.9983 11.6091 39.939 11.0054 39.8201 10.4075C39.7009 9.80933 39.5249 9.22876 39.2915 8.66553C39.0583 8.10229 38.7722 7.56714 38.4336 7.06006C38.0947 6.55322 37.71 6.08423 37.2788 5.65308C36.8477 5.22192 36.3787 4.83716 35.8718 4.49829C35.3647 4.15967 34.8296 3.87354 34.2664 3.64038C33.7031 3.40698 33.1226 3.23096 32.5244 3.11182C31.9265 2.99292 31.3228 2.93359 30.7131 2.93359C30.1033 2.93359 29.4995 2.99292 28.9016 3.11182C28.3035 3.23096 27.7229 3.40698 27.1597 3.64038C26.5964 3.87354 26.0613 4.15967 25.5544 4.49829C25.0474 4.83716 24.5784 5.22192 24.1472 5.65308L22.0005 7.7998L19.8518 5.65112C19.4207 5.22021 18.9517 4.83521 18.4446 4.49658C17.9375 4.15771 17.4023 3.87183 16.8391 3.63843C16.2756 3.40527 15.6951 3.229 15.0969 3.11011C14.499 2.99121 13.895 2.93188 13.2854 2.93188C12.6755 2.93188 12.0718 2.99146 11.4739 3.11035C10.8757 3.22949 10.2952 3.40552 9.73193 3.63892C9.16846 3.87231 8.6333 4.15845 8.12646 4.49731C7.61963 4.83594 7.15039 5.22095 6.71924 5.6521C6.28833 6.08325 5.90332 6.55249 5.5647 7.05933C5.22583 7.56641 4.93994 8.10156 4.70654 8.66504C4.47339 9.22827 4.29712 9.80884 4.17822 10.407C4.05933 11.0049 4 11.6089 4 12.2185C4 12.8284 4.05957 13.4321 4.17847 14.0303C4.29761 14.6282 4.47363 15.2087 4.70703 15.7722C4.94043 16.3354 5.22656 16.8706 5.56543 17.3774C5.90405 17.8845 6.28906 18.3535 6.72021 18.7847L8.8689 20.9314L6.72021 23.0801C6.28906 23.5112 5.9043 23.9802 5.56543 24.4871C5.22681 24.9941 4.94092 25.5293 4.70752 26.0925C4.47412 26.6558 4.2981 27.2363 4.1792 27.8345C4.06006 28.4324 4.00073 29.0361 4.00073 29.6458C4.00073 30.2556 4.06006 30.8594 4.1792 31.4573C4.2981 32.0554 4.47412 32.636 4.70752 33.1992C4.94092 33.7625 5.22681 34.2976 5.56543 34.8044C5.9043 35.3115 6.28906 35.7805 6.72021 36.2117C7.15137 36.6428 7.62036 37.0276 8.12744 37.3665C8.63428 37.7051 9.16943 37.991 9.73267 38.2244C10.2959 38.4578 10.8765 38.6338 11.4746 38.7527C12.0725 38.8718 12.6763 38.9312 13.2861 38.9312C13.8958 38.9312 14.4995 38.8718 15.0974 38.7527C15.6956 38.6338 16.2761 38.4578 16.8394 38.2244C17.4026 37.991 17.9377 37.7051 18.4448 37.3665C18.9517 37.0276 19.4207 36.6428 19.8518 36.2117L22.0005 34.063Z" fill-rule="evenodd" fill="#832FFF"/>
</svg>