<svg t="1684604716666" class="icon" viewBox="0 0 1088 1024" version="1.1" xmlns="http://www.w3.org/2000/svg" p-id="2638" width="24" height="24"><path d="M870.4 243.2h-134.4V166.4c0-57.6-44.8-102.4-102.4-102.4H486.4C428.8 64 384 108.8 384 166.4v76.8H249.6c-25.6 0-44.8 19.2-44.8 44.8s19.2 44.8 44.8 44.8h614.4c25.6 0 44.8-19.2 44.8-44.8s-19.2-44.8-38.4-44.8z m-224 0H473.6V166.4c0-6.4 6.4-12.8 12.8-12.8h147.2c6.4 0 12.8 6.4 12.8 12.8v76.8zM812.8 422.4c-25.6 0-44.8 12.8-51.2 38.4l-38.4 396.8c0 6.4-6.4 12.8-12.8 12.8H409.6c-6.4 0-12.8-6.4-12.8-12.8l-44.8-396.8c0-25.6-25.6-44.8-51.2-38.4s-38.4 25.6-32 51.2l38.4 396.8c6.4 51.2 44.8 89.6 102.4 89.6h307.2c51.2 0 96-38.4 102.4-96l38.4-396.8c0-19.2-19.2-44.8-44.8-44.8z" fill="#8C8C8C" p-id="2639"></path></svg>