<svg width="44.000000" height="43.000000" viewBox="0 0 44 43" fill="none" xmlns="http://www.w3.org/2000/svg" xmlns:xlink="http://www.w3.org/1999/xlink">
	<path id="path" d="M22.7522 5.92017C20.3169 5.91479 17.9917 6.41846 15.7766 7.43115C15.3518 6.68213 14.8367 6.00122 14.2312 5.38892C13.6257 4.77637 12.9512 4.25366 12.207 3.82056C11.4631 3.38745 10.6755 3.05884 9.84424 2.83496C9.01318 2.61084 8.16724 2.49927 7.3064 2.5L5.97607 2.5L5.97607 22.71C5.97607 23.26 6.00293 23.8086 6.05688 24.3557C6.1106 24.9031 6.19116 25.4463 6.29834 25.9856C6.40552 26.5249 6.53906 27.0576 6.69849 27.584C6.85791 28.1101 7.04272 28.6272 7.25317 29.1353C7.46338 29.6433 7.698 30.1399 7.95703 30.6248C8.21606 31.1096 8.49805 31.5808 8.80347 32.0381C9.10864 32.4954 9.43555 32.9365 9.78418 33.3616C10.1326 33.7866 10.5012 34.1936 10.8896 34.5823C11.2783 34.9712 11.6848 35.3401 12.1096 35.689C12.5342 36.0376 12.9751 36.365 13.4319 36.6704C13.8887 36.9758 14.3594 37.2583 14.844 37.5176C15.3286 37.7766 15.8247 38.0115 16.3323 38.2219C16.8398 38.4324 17.3564 38.6174 17.8823 38.7771C18.4082 38.9368 18.9404 39.0701 19.4792 39.1775C20.0183 39.2847 20.561 39.3652 21.1079 39.4192C21.6545 39.4731 22.2026 39.5 22.7522 39.5C23.3018 39.5 23.8499 39.4731 24.3965 39.4192C24.9434 39.3652 25.4861 39.2847 26.0251 39.1775C26.564 39.0701 27.0962 38.9368 27.6221 38.7771C28.1479 38.6174 28.6646 38.4324 29.1721 38.2219C29.6797 38.0115 30.1758 37.7766 30.6604 37.5176C31.145 37.2583 31.6157 36.9758 32.0725 36.6704C32.5293 36.365 32.9702 36.0376 33.3948 35.689C33.8196 35.3401 34.2261 34.9712 34.6147 34.5823C35.0032 34.1936 35.3718 33.7866 35.7202 33.3616C36.0688 32.9365 36.3958 32.4954 36.7009 32.0381C37.0063 31.5808 37.2883 31.1096 37.5474 30.6248C37.8064 30.1399 38.041 29.6433 38.2512 29.1353C38.4617 28.6272 38.6465 28.1101 38.8059 27.584C38.9653 27.0576 39.0989 26.5249 39.2061 25.9856C39.3132 25.4463 39.3936 24.9031 39.4475 24.3557C39.5015 23.8086 39.5283 23.26 39.5283 22.71C39.5283 22.1602 39.5015 21.6116 39.4475 21.0645C39.3936 20.5171 39.3132 19.9739 39.2061 19.4346C39.0989 18.8953 38.9653 18.3623 38.8059 17.8362C38.6465 17.3101 38.4617 16.793 38.2512 16.2849C38.041 15.7769 37.8064 15.2803 37.5474 14.7954C37.2883 14.3103 37.0063 13.8394 36.7009 13.3821C36.3958 12.9248 36.0688 12.4836 35.7202 12.0586C35.3718 11.6335 35.0032 11.2266 34.6147 10.8379C34.2261 10.449 33.8196 10.0801 33.3948 9.7312C32.9702 9.38232 32.5293 9.05518 32.0725 8.74976C31.6157 8.44434 31.145 8.16187 30.6604 7.90259C30.1758 7.64355 29.6797 7.40869 29.1721 7.19824C28.6646 6.98779 28.1479 6.80273 27.6221 6.64307C27.0962 6.4834 26.564 6.3501 26.0251 6.24268C25.4861 6.1355 24.9434 6.05493 24.3965 6.00098C23.8499 5.94702 23.3018 5.92017 22.7522 5.92017Z" fill-rule="evenodd" fill="#FF9344"/>
</svg>
