<svg width="44.000000" height="43.000000" viewBox="0 0 44 43" fill="none" xmlns="http://www.w3.org/2000/svg" xmlns:xlink="http://www.w3.org/1999/xlink">
	<path id="path" d="M34.4697 5C33.2522 4.99878 32.0916 5.2561 30.988 5.77222C29.8845 6.28809 28.9421 7.01416 28.1611 7.9502C27.3796 7.01416 26.437 6.28833 25.3333 5.77222C24.2295 5.25635 23.0686 4.99878 21.8508 5C20.6331 4.99878 19.4724 5.25635 18.3689 5.77222C17.2656 6.28833 16.3232 7.01416 15.542 7.9502C14.7607 7.01416 13.8184 6.28833 12.7151 5.77222C11.6116 5.25635 10.4509 4.99878 9.2334 5C8.69263 5 8.15723 5.05273 7.62695 5.15845C7.09668 5.26416 6.58179 5.42065 6.08228 5.62793C5.58276 5.83521 5.1084 6.08936 4.65894 6.39038C4.20923 6.69141 3.79346 7.03345 3.41113 7.41626C3.02881 7.79932 2.6875 8.21606 2.38721 8.6665C2.08667 9.11694 1.83325 9.59229 1.62622 10.0928C1.41943 10.5933 1.26318 11.1091 1.15771 11.6406C1.05225 12.1719 0.999512 12.7083 0.999512 13.25L0.999512 29.75C0.999512 30.2917 1.05225 30.8281 1.15771 31.3594C1.26318 31.8909 1.41943 32.4067 1.62622 32.9072C1.83325 33.4077 2.08667 33.8831 2.38721 34.3335C2.6875 34.7839 3.02881 35.2007 3.41113 35.5837C3.79346 35.9666 4.20923 36.3086 4.65894 36.6096C5.1084 36.9106 5.58276 37.1648 6.08228 37.3721C6.58179 37.5793 7.09668 37.7358 7.62695 37.8416C8.15723 37.9473 8.69263 38 9.2334 38C10.4509 38.0012 11.6116 37.7437 12.7151 37.2278C13.8184 36.7117 14.7607 35.9858 15.542 35.0498C16.3232 35.9858 17.2656 36.7117 18.3689 37.2278C19.4724 37.7437 20.6331 38.0012 21.8508 38C23.0686 38.0012 24.2295 37.7437 25.3333 37.2278C26.437 36.7117 27.3796 35.9858 28.1611 35.0498C28.9421 35.9858 29.8845 36.7119 30.988 37.2278C32.0916 37.7439 33.2522 38.0012 34.4697 38C35.0105 38 35.5459 37.9473 36.0762 37.8416C36.6064 37.7358 37.1213 37.5793 37.6208 37.3721C38.1201 37.1648 38.5947 36.9106 39.0442 36.6096C39.4939 36.3086 39.9097 35.9666 40.292 35.5837C40.6743 35.2007 41.0156 34.7839 41.3159 34.3335C41.6162 33.8831 41.8699 33.4077 42.0769 32.9072C42.2837 32.4067 42.4399 31.8909 42.5454 31.3594C42.6509 30.8281 42.7036 30.2917 42.7036 29.75L42.7036 13.25C42.7036 12.7083 42.6509 12.1719 42.5454 11.6406C42.4399 11.1091 42.2837 10.5933 42.0769 10.0928C41.8699 9.59229 41.6162 9.11694 41.3159 8.6665C41.0156 8.21606 40.6743 7.79932 40.292 7.41626C39.9097 7.03345 39.4939 6.69141 39.0442 6.39038C38.5947 6.08936 38.1201 5.83521 37.6208 5.62793C37.1213 5.42065 36.6064 5.26416 36.0762 5.15845C35.5459 5.05273 35.0105 5 34.4697 5Z" fill-rule="evenodd" fill="#0F64FF"/>
</svg>
